<svg xmlns="http://www.w3.org/2000/svg" xmlns:xlink="http://www.w3.org/1999/xlink" width="1920" height="1151" viewBox="0 0 1920 1151"><defs><clipPath id="clip-path"><rect id="Ret&#xE2;ngulo_153" data-name="Ret&#xE2;ngulo 153" width="1920" height="1151" transform="translate(0 1080)" fill="#fff" stroke="#707070" stroke-width="1"></rect></clipPath><clipPath id="clip-path-2"><rect id="Ret&#xE2;ngulo_127" data-name="Ret&#xE2;ngulo 127" width="464.921" height="185.391" fill="none"></rect></clipPath></defs><g id="Grupo_de_m&#xE1;scara_3" data-name="Grupo de m&#xE1;scara 3" transform="translate(0 -1080)" clip-path="url(#clip-path)"><g id="Grupo_174" data-name="Grupo 174" transform="translate(967.179 -1071.11) rotate(30)" opacity="0.511"><g id="Grupo_123" data-name="Grupo 123" transform="translate(1208.149 2878.933) rotate(79)" opacity="0.187"><g id="Grupo_122" data-name="Grupo 122" transform="translate(0 0)" clip-path="url(#clip-path-2)"><path id="Caminho_48" data-name="Caminho 48" d="M463.015,19.188,364.526.043a2.318,2.318,0,0,0-2.592,1.42A151.921,151.921,0,0,1,220.858,96.473,151.848,151.848,0,0,1,113.74,52.513L0,78.18q2.557-.053,5.084-.142a2.271,2.271,0,0,1,1.941.953c46.2,64.146,124.689,106.4,213.833,106.4,113.35,0,209.542-68.277,243.927-163.091a2.359,2.359,0,0,0-1.77-3.107" transform="translate(0 0.001)" fill="#0092ff"></path></g></g><g id="Grupo_125" data-name="Grupo 125" transform="matrix(0.899, -0.438, 0.438, 0.899, 54.862, 3475.089)" opacity="0.187"><g id="Grupo_124" data-name="Grupo 124" transform="translate(0 0)" clip-path="url(#clip-path-2)"><path id="Caminho_49" data-name="Caminho 49" d="M463.015,19.188,364.526.043a2.318,2.318,0,0,0-2.592,1.42A151.921,151.921,0,0,1,220.858,96.473,151.848,151.848,0,0,1,113.74,52.513L0,78.18q2.557-.053,5.084-.142a2.271,2.271,0,0,1,1.941.953c46.2,64.146,124.689,106.4,213.833,106.4,113.35,0,209.542-68.277,243.927-163.091a2.359,2.359,0,0,0-1.77-3.107" transform="translate(0 0.001)" fill="#0092ff"></path></g></g><g id="Grupo_127" data-name="Grupo 127" transform="translate(674.81 3442.843) rotate(-75)" opacity="0.187"><g id="Grupo_126" data-name="Grupo 126" transform="translate(0 0)" clip-path="url(#clip-path-2)"><path id="Caminho_50" data-name="Caminho 50" d="M463.015,19.188,364.526.043a2.318,2.318,0,0,0-2.592,1.42A151.921,151.921,0,0,1,220.858,96.473,151.848,151.848,0,0,1,113.74,52.513L0,78.18q2.557-.053,5.084-.142a2.271,2.271,0,0,1,1.941.953c46.2,64.146,124.689,106.4,213.833,106.4,113.35,0,209.542-68.277,243.927-163.091a2.359,2.359,0,0,0-1.77-3.107" transform="translate(0 0.001)" fill="#0092ff"></path></g></g><g id="Grupo_129" data-name="Grupo 129" transform="translate(578.977 1830.98) rotate(164)" opacity="0.187"><g id="Grupo_128" data-name="Grupo 128" transform="translate(0 0)" clip-path="url(#clip-path-2)"><path id="Caminho_51" data-name="Caminho 51" d="M463.015,19.188,364.526.043a2.318,2.318,0,0,0-2.592,1.42A151.921,151.921,0,0,1,220.858,96.473,151.848,151.848,0,0,1,113.74,52.513L0,78.18q2.557-.053,5.084-.142a2.271,2.271,0,0,1,1.941.953c46.2,64.146,124.689,106.4,213.833,106.4,113.35,0,209.542-68.277,243.927-163.091a2.359,2.359,0,0,0-1.77-3.107" transform="translate(0 0.001)" fill="#0092ff"></path></g></g><g id="Grupo_131" data-name="Grupo 131" transform="translate(743.205 2374.744) rotate(-135)" opacity="0.187"><g id="Grupo_130" data-name="Grupo 130" transform="translate(0 0)" clip-path="url(#clip-path-2)"><path id="Caminho_52" data-name="Caminho 52" d="M463.015,19.188,364.526.043a2.318,2.318,0,0,0-2.592,1.42A151.921,151.921,0,0,1,220.858,96.473,151.848,151.848,0,0,1,113.74,52.513L0,78.18q2.557-.053,5.084-.142a2.271,2.271,0,0,1,1.941.953c46.2,64.146,124.689,106.4,213.833,106.4,113.35,0,209.542-68.277,243.927-163.091a2.359,2.359,0,0,0-1.77-3.107" transform="translate(0 0.001)" fill="#0092ff"></path></g></g><g id="Grupo_133" data-name="Grupo 133" transform="translate(892.954 2295.008) rotate(30)" opacity="0.187"><g id="Grupo_132" data-name="Grupo 132" transform="translate(0 0)" clip-path="url(#clip-path-2)"><path id="Caminho_53" data-name="Caminho 53" d="M463.015,19.188,364.526.043a2.318,2.318,0,0,0-2.592,1.42A151.921,151.921,0,0,1,220.858,96.473,151.848,151.848,0,0,1,113.74,52.513L0,78.18q2.557-.053,5.084-.142a2.271,2.271,0,0,1,1.941.953c46.2,64.146,124.689,106.4,213.833,106.4,113.35,0,209.542-68.277,243.927-163.091a2.359,2.359,0,0,0-1.77-3.107" transform="translate(0 0.001)" fill="#0092ff"></path></g></g><g id="Grupo_135" data-name="Grupo 135" transform="translate(1224.355 1842.045) rotate(150)" opacity="0.187"><g id="Grupo_134" data-name="Grupo 134" transform="translate(0 0)" clip-path="url(#clip-path-2)"><path id="Caminho_54" data-name="Caminho 54" d="M463.015,19.188,364.526.043a2.318,2.318,0,0,0-2.592,1.42A151.921,151.921,0,0,1,220.858,96.473,151.848,151.848,0,0,1,113.74,52.513L0,78.18q2.557-.053,5.084-.142a2.271,2.271,0,0,1,1.941.953c46.2,64.146,124.689,106.4,213.833,106.4,113.35,0,209.542-68.277,243.927-163.091a2.359,2.359,0,0,0-1.77-3.107" transform="translate(0 0.001)" fill="#0092ff"></path></g></g><g id="Grupo_137" data-name="Grupo 137" transform="translate(1206.208 2725.239) rotate(150)" opacity="0.187"><g id="Grupo_136" data-name="Grupo 136" transform="translate(0 0)" clip-path="url(#clip-path-2)"><path id="Caminho_55" data-name="Caminho 55" d="M463.015,19.188,364.526.043a2.318,2.318,0,0,0-2.592,1.42A151.921,151.921,0,0,1,220.858,96.473,151.848,151.848,0,0,1,113.74,52.513L0,78.18q2.557-.053,5.084-.142a2.271,2.271,0,0,1,1.941.953c46.2,64.146,124.689,106.4,213.833,106.4,113.35,0,209.542-68.277,243.927-163.091a2.359,2.359,0,0,0-1.77-3.107" transform="translate(0 0.001)" fill="#0092ff"></path></g></g><g id="Grupo_139" data-name="Grupo 139" transform="translate(266.483 2452.098) rotate(-1)" opacity="0.187"><g id="Grupo_138" data-name="Grupo 138" transform="translate(0 0)" clip-path="url(#clip-path-2)"><path id="Caminho_56" data-name="Caminho 56" d="M463.015,19.188,364.526.043a2.318,2.318,0,0,0-2.592,1.42A151.921,151.921,0,0,1,220.858,96.473,151.848,151.848,0,0,1,113.74,52.513L0,78.18q2.557-.053,5.084-.142a2.271,2.271,0,0,1,1.941.953c46.2,64.146,124.689,106.4,213.833,106.4,113.35,0,209.542-68.277,243.927-163.091a2.359,2.359,0,0,0-1.77-3.107" transform="translate(0 0.001)" fill="#0092ff"></path></g></g><g id="Grupo_141" data-name="Grupo 141" transform="matrix(0.809, -0.588, 0.588, 0.809, 1252.718, 2356.62)" opacity="0.187"><g id="Grupo_140" data-name="Grupo 140" transform="translate(0 0)" clip-path="url(#clip-path-2)"><path id="Caminho_57" data-name="Caminho 57" d="M463.015,19.188,364.526.043a2.318,2.318,0,0,0-2.592,1.42A151.921,151.921,0,0,1,220.858,96.473,151.848,151.848,0,0,1,113.74,52.513L0,78.18q2.557-.053,5.084-.142a2.271,2.271,0,0,1,1.941.953c46.2,64.146,124.689,106.4,213.833,106.4,113.35,0,209.542-68.277,243.927-163.091a2.359,2.359,0,0,0-1.77-3.107" transform="translate(0 0.001)" fill="#0092ff"></path></g></g><g id="Grupo_143" data-name="Grupo 143" transform="matrix(0.809, -0.588, 0.588, 0.809, 315.16, 2994.029)" opacity="0.187"><g id="Grupo_142" data-name="Grupo 142" transform="translate(0 0)" clip-path="url(#clip-path-2)"><path id="Caminho_58" data-name="Caminho 58" d="M463.015,19.188,364.526.043a2.318,2.318,0,0,0-2.592,1.42A151.921,151.921,0,0,1,220.858,96.473,151.848,151.848,0,0,1,113.74,52.513L0,78.18q2.557-.053,5.084-.142a2.271,2.271,0,0,1,1.941.953c46.2,64.146,124.689,106.4,213.833,106.4,113.35,0,209.542-68.277,243.927-163.091a2.359,2.359,0,0,0-1.77-3.107" transform="translate(0 0.001)" fill="#0092ff"></path></g></g><g id="Grupo_145" data-name="Grupo 145" transform="matrix(0.857, -0.515, 0.515, 0.857, 1662.123, 2215.832)" opacity="0.187"><g id="Grupo_144" data-name="Grupo 144" transform="translate(0 0)" clip-path="url(#clip-path-2)"><path id="Caminho_59" data-name="Caminho 59" d="M463.015,19.188,364.526.043a2.318,2.318,0,0,0-2.592,1.42A151.921,151.921,0,0,1,220.858,96.473,151.848,151.848,0,0,1,113.74,52.513L0,78.18q2.557-.053,5.084-.142a2.271,2.271,0,0,1,1.941.953c46.2,64.146,124.689,106.4,213.833,106.4,113.35,0,209.542-68.277,243.927-163.091a2.359,2.359,0,0,0-1.77-3.107" transform="translate(0 0.001)" fill="#0092ff"></path></g></g><g id="Grupo_147" data-name="Grupo 147" transform="translate(2203.694 1826.925) rotate(150)" opacity="0.187"><g id="Grupo_146" data-name="Grupo 146" transform="translate(0 0)" clip-path="url(#clip-path-2)"><path id="Caminho_60" data-name="Caminho 60" d="M463.015,19.188,364.526.043a2.318,2.318,0,0,0-2.592,1.42A151.921,151.921,0,0,1,220.858,96.473,151.848,151.848,0,0,1,113.74,52.513L0,78.18q2.557-.053,5.084-.142a2.271,2.271,0,0,1,1.941.953c46.2,64.146,124.689,106.4,213.833,106.4,113.35,0,209.542-68.277,243.927-163.091a2.359,2.359,0,0,0-1.77-3.107" transform="translate(0 0.001)" fill="#0092ff"></path></g></g><g id="Grupo_149" data-name="Grupo 149" transform="translate(2181.612 2342.66) rotate(-45)" opacity="0.187"><g id="Grupo_148" data-name="Grupo 148" transform="translate(0 0)" clip-path="url(#clip-path-2)"><path id="Caminho_61" data-name="Caminho 61" d="M463.015,19.188,364.526.043a2.318,2.318,0,0,0-2.592,1.42A151.921,151.921,0,0,1,220.858,96.473,151.848,151.848,0,0,1,113.74,52.513L0,78.18q2.557-.053,5.084-.142a2.271,2.271,0,0,1,1.941.953c46.2,64.146,124.689,106.4,213.833,106.4,113.35,0,209.542-68.277,243.927-163.091a2.359,2.359,0,0,0-1.77-3.107" transform="translate(0 0.001)" fill="#0092ff"></path></g></g><g id="Grupo_151" data-name="Grupo 151" transform="translate(2118.021 2517.129) rotate(165)" opacity="0.187"><g id="Grupo_150" data-name="Grupo 150" transform="translate(0 0)" clip-path="url(#clip-path-2)"><path id="Caminho_62" data-name="Caminho 62" d="M463.015,19.188,364.526.043a2.318,2.318,0,0,0-2.592,1.42A151.921,151.921,0,0,1,220.858,96.473,151.848,151.848,0,0,1,113.74,52.513L0,78.18q2.557-.053,5.084-.142a2.271,2.271,0,0,1,1.941.953c46.2,64.146,124.689,106.4,213.833,106.4,113.35,0,209.542-68.277,243.927-163.091a2.359,2.359,0,0,0-1.77-3.107" transform="translate(0 0.001)" fill="#0092ff"></path></g></g><g id="Grupo_153" data-name="Grupo 153" transform="translate(1252.718 2943.356) rotate(-60)" opacity="0.187"><g id="Grupo_152" data-name="Grupo 152" transform="translate(0 0)" clip-path="url(#clip-path-2)"><path id="Caminho_63" data-name="Caminho 63" d="M463.015,19.188,364.526.043a2.318,2.318,0,0,0-2.592,1.42A151.921,151.921,0,0,1,220.858,96.473,151.848,151.848,0,0,1,113.74,52.513L0,78.18q2.557-.053,5.084-.142a2.271,2.271,0,0,1,1.941.953c46.2,64.146,124.689,106.4,213.833,106.4,113.35,0,209.542-68.277,243.927-163.091a2.359,2.359,0,0,0-1.77-3.107" transform="translate(0 0.001)" fill="#0092ff"></path></g></g><g id="Grupo_155" data-name="Grupo 155" transform="translate(1220.928 1932.243) rotate(90)" opacity="0.187"><g id="Grupo_154" data-name="Grupo 154" transform="translate(0 0)" clip-path="url(#clip-path-2)"><path id="Caminho_64" data-name="Caminho 64" d="M463.015,19.188,364.526.043a2.318,2.318,0,0,0-2.592,1.42A151.921,151.921,0,0,1,220.858,96.473,151.848,151.848,0,0,1,113.74,52.513L0,78.18q2.557-.053,5.084-.142a2.271,2.271,0,0,1,1.941.953c46.2,64.146,124.689,106.4,213.833,106.4,113.35,0,209.542-68.277,243.927-163.091a2.359,2.359,0,0,0-1.77-3.107" transform="translate(0 0.001)" fill="#0092ff"></path></g></g><g id="Grupo_157" data-name="Grupo 157" transform="matrix(0.809, 0.588, -0.588, 0.809, 523.426, 1454.741)" opacity="0.187"><g id="Grupo_156" data-name="Grupo 156" transform="translate(0 0)" clip-path="url(#clip-path-2)"><path id="Caminho_65" data-name="Caminho 65" d="M463.015,19.188,364.526.043a2.318,2.318,0,0,0-2.592,1.42A151.921,151.921,0,0,1,220.858,96.473,151.848,151.848,0,0,1,113.74,52.513L0,78.18q2.557-.053,5.084-.142a2.271,2.271,0,0,1,1.941.953c46.2,64.146,124.689,106.4,213.833,106.4,113.35,0,209.543-68.277,243.927-163.091a2.359,2.359,0,0,0-1.77-3.107" transform="translate(0 0.001)" fill="#0092ff"></path></g></g><g id="Grupo_159" data-name="Grupo 159" transform="matrix(0.809, 0.588, -0.588, 0.809, 1827.566, 2688.019)" opacity="0.187"><g id="Grupo_158" data-name="Grupo 158" transform="translate(0 0)" clip-path="url(#clip-path-2)"><path id="Caminho_66" data-name="Caminho 66" d="M463.015,19.188,364.526.043a2.318,2.318,0,0,0-2.592,1.42A151.921,151.921,0,0,1,220.858,96.473,151.848,151.848,0,0,1,113.74,52.513L0,78.18q2.557-.053,5.084-.142a2.271,2.271,0,0,1,1.941.953c46.2,64.146,124.689,106.4,213.833,106.4,113.35,0,209.543-68.277,243.927-163.091a2.359,2.359,0,0,0-1.77-3.107" transform="translate(0 0.001)" fill="#0092ff"></path></g></g><g id="Grupo_161" data-name="Grupo 161" transform="translate(1765.875 1405.188) rotate(90)" opacity="0.187"><g id="Grupo_160" data-name="Grupo 160" transform="translate(0 0)" clip-path="url(#clip-path-2)"><path id="Caminho_67" data-name="Caminho 67" d="M463.015,19.188,364.526.043a2.318,2.318,0,0,0-2.592,1.42A151.921,151.921,0,0,1,220.858,96.473,151.848,151.848,0,0,1,113.74,52.513L0,78.18q2.557-.053,5.084-.142a2.271,2.271,0,0,1,1.941.953c46.2,64.146,124.689,106.4,213.833,106.4,113.35,0,209.542-68.277,243.927-163.091a2.359,2.359,0,0,0-1.77-3.107" transform="translate(0 0.001)" fill="#0092ff"></path></g></g><g id="Grupo_163" data-name="Grupo 163" transform="matrix(0.259, -0.966, 0.966, 0.259, 1252.718, 2066.101)" opacity="0.187"><g id="Grupo_162" data-name="Grupo 162" transform="translate(0 0)" clip-path="url(#clip-path-2)"><path id="Caminho_68" data-name="Caminho 68" d="M463.015,19.188,364.526.043a2.318,2.318,0,0,0-2.592,1.42A151.921,151.921,0,0,1,220.858,96.473,151.848,151.848,0,0,1,113.74,52.513L0,78.18q2.557-.053,5.084-.142a2.271,2.271,0,0,1,1.941.953c46.2,64.146,124.689,106.4,213.833,106.4,113.35,0,209.542-68.277,243.927-163.091a2.359,2.359,0,0,0-1.77-3.107" transform="translate(0 0.001)" fill="#0092ff"></path></g></g><g id="Grupo_165" data-name="Grupo 165" transform="translate(278 3072.204) rotate(150)" opacity="0.187"><g id="Grupo_164" data-name="Grupo 164" transform="translate(0 0)" clip-path="url(#clip-path-2)"><path id="Caminho_69" data-name="Caminho 69" d="M463.015,19.188,364.526.043a2.318,2.318,0,0,0-2.592,1.42A151.921,151.921,0,0,1,220.858,96.473,151.848,151.848,0,0,1,113.74,52.513L0,78.18q2.557-.053,5.084-.142a2.271,2.271,0,0,1,1.941.953c46.2,64.146,124.689,106.4,213.833,106.4,113.35,0,209.542-68.277,243.927-163.091a2.359,2.359,0,0,0-1.77-3.107" transform="translate(0 0.001)" fill="#0092ff"></path></g></g><g id="Grupo_167" data-name="Grupo 167" transform="translate(213.542 2504.77) rotate(150)" opacity="0.187"><g id="Grupo_166" data-name="Grupo 166" transform="translate(0 0)" clip-path="url(#clip-path-2)"><path id="Caminho_70" data-name="Caminho 70" d="M463.015,19.188,364.526.043a2.318,2.318,0,0,0-2.592,1.42A151.921,151.921,0,0,1,220.858,96.473,151.848,151.848,0,0,1,113.74,52.513L0,78.18q2.557-.053,5.084-.142a2.271,2.271,0,0,1,1.941.953c46.2,64.146,124.689,106.4,213.833,106.4,113.35,0,209.542-68.277,243.927-163.091a2.359,2.359,0,0,0-1.77-3.107" transform="translate(0 0.001)" fill="#0092ff"></path></g></g><g id="Grupo_169" data-name="Grupo 169" transform="translate(122.087 2394.624) rotate(-135)" opacity="0.187"><g id="Grupo_168" data-name="Grupo 168" transform="translate(0 0)" clip-path="url(#clip-path-2)"><path id="Caminho_71" data-name="Caminho 71" d="M463.015,19.188,364.526.043a2.318,2.318,0,0,0-2.592,1.42A151.921,151.921,0,0,1,220.858,96.473,151.848,151.848,0,0,1,113.74,52.513L0,78.18q2.557-.053,5.084-.142a2.271,2.271,0,0,1,1.941.953c46.2,64.146,124.689,106.4,213.833,106.4,113.35,0,209.542-68.277,243.927-163.091a2.359,2.359,0,0,0-1.77-3.107" transform="translate(0 0.001)" fill="#0092ff"></path></g></g><g id="Grupo_171" data-name="Grupo 171" transform="translate(-254.543 2714.288) rotate(-1)" opacity="0.187"><g id="Grupo_170" data-name="Grupo 170" transform="translate(0 0)" clip-path="url(#clip-path-2)"><path id="Caminho_72" data-name="Caminho 72" d="M463.015,19.188,364.526.043a2.318,2.318,0,0,0-2.592,1.42A151.921,151.921,0,0,1,220.858,96.473,151.848,151.848,0,0,1,113.74,52.513L0,78.18q2.557-.053,5.084-.142a2.271,2.271,0,0,1,1.941.953c46.2,64.146,124.689,106.4,213.833,106.4,113.35,0,209.542-68.277,243.927-163.091a2.359,2.359,0,0,0-1.77-3.107" transform="translate(0 0.001)" fill="#0092ff"></path></g></g><g id="Grupo_173" data-name="Grupo 173" transform="matrix(0.809, 0.588, -0.588, 0.809, -266.725, 1426.018)" opacity="0.187"><g id="Grupo_172" data-name="Grupo 172" transform="translate(0 0)" clip-path="url(#clip-path-2)"><path id="Caminho_73" data-name="Caminho 73" d="M463.015,19.188,364.526.043a2.318,2.318,0,0,0-2.592,1.42A151.921,151.921,0,0,1,220.858,96.473,151.848,151.848,0,0,1,113.74,52.513L0,78.18q2.557-.053,5.084-.142a2.271,2.271,0,0,1,1.941.953c46.2,64.146,124.689,106.4,213.833,106.4,113.35,0,209.543-68.277,243.927-163.091a2.359,2.359,0,0,0-1.77-3.107" transform="translate(0 0.001)" fill="#0092ff"></path></g></g></g></g></svg>